<svg width="450" height="447" viewBox="0 0 450 447" fill="none" xmlns="http://www.w3.org/2000/svg">
<mask id="mask0_229_777" style="mask-type:alpha" maskUnits="userSpaceOnUse" x="0" y="0" width="450" height="447">
<rect width="450" height="446.691" fill="#D9D9D9"/>
</mask>
<g mask="url(#mask0_229_777)">
<mask id="mask1_229_777" style="mask-type:alpha" maskUnits="userSpaceOnUse" x="-566" y="-543" width="1516" height="1516">
<rect x="-565.809" y="-542.647" width="1515.44" height="1515.44" fill="#D9D9D9"/>
</mask>
<g mask="url(#mask1_229_777)">
<path fill-rule="evenodd" clip-rule="evenodd" d="M5.86648 439.958C0.469787 434.565 -1.65119 426.703 0.301014 419.328L70.8815 152.289C70.9841 151.905 71.0966 151.525 71.219 151.147C77.5521 131.635 91.4558 115.478 109.803 106.306L110.161 106.131L213.125 57.0147C217.615 54.7945 222.32 53.3188 227.088 52.5545C229.397 43.6769 234.179 35.4048 240.733 28.8501L254.564 15.0192C273.702 -4.11903 304.729 -4.11903 323.864 15.0192L434.541 125.696C453.679 144.831 453.679 175.858 434.541 194.996L420.71 208.827C414.079 215.458 405.734 220.209 396.811 222.459C395.954 227.707 394.23 232.875 391.609 237.753L339.535 337.659L339.366 337.98C330.002 355.226 314.378 368.216 295.716 374.278C295.339 374.4 294.958 374.51 294.578 374.612L26.5003 445.524C19.1249 447.476 11.2632 445.355 5.86648 439.958ZM352.783 210.213C354.706 212.136 355.136 215.094 353.839 217.483L353.67 217.8L301.616 317.667C297.569 325.036 290.918 330.625 282.97 333.341L92.379 383.758L167.797 308.343C196.743 324.186 230.314 316.258 250.011 296.56C277.832 268.74 277.832 223.637 250.011 195.82C222.194 167.999 177.088 167.999 149.271 195.82C129.411 215.676 122.969 249.81 137.66 277.859L62.0437 353.472L112.152 163.89C114.995 155.578 120.974 148.696 128.819 144.722L231.733 95.6288L232.091 95.4567C234.453 94.2754 237.309 94.7387 239.175 96.6049L352.783 210.213ZM269.487 66.2961L383.095 179.904C383.708 180.517 384.184 180.758 384.479 180.871C384.79 180.99 385.16 181.063 385.643 181.036C386.613 180.987 388.436 180.48 390.398 178.518L404.232 164.684C406.628 162.288 406.628 158.4 404.232 156.005L293.555 45.328C291.16 42.9324 287.272 42.9324 284.876 45.328L271.042 59.1622C268.984 61.217 268.481 63.0732 268.432 63.9765C268.405 64.4166 268.468 64.7343 268.564 64.9923C268.656 65.2339 268.875 65.6839 269.487 66.2961ZM180.844 264.988C193.854 277.998 210.669 275.285 219.702 266.252C230.78 255.17 230.78 237.207 219.702 226.129C208.621 215.051 190.661 215.051 179.58 226.129C170.997 234.712 168.902 253.046 180.844 264.988Z" fill="white"/>
</g>
</g>
</svg>
