<svg width="700" height="701" viewBox="0 0 700 701" fill="none" xmlns="http://www.w3.org/2000/svg">
<path d="M496.409 25.6627L430.165 91.9066L608.093 269.835L674.337 203.591C708.554 169.374 708.554 113.942 674.337 79.7254L620.411 25.6627C586.195 -8.55423 530.763 -8.55423 496.546 25.6627H496.409ZM399.233 122.839L80.1949 442.014C65.9607 456.248 55.5588 473.904 49.8103 493.202L1.35919 657.854C-2.0625 669.488 1.08546 681.943 9.57125 690.429C18.057 698.915 30.512 702.062 42.0089 698.778L206.661 650.327C225.959 644.578 243.615 634.176 257.849 619.942L577.161 300.767L399.233 122.839Z" fill="#636363"/>
</svg>
