<svg width="389" height="389" viewBox="0 0 389 389" fill="none" xmlns="http://www.w3.org/2000/svg">
<path d="M380.544 194.021C380.544 297.033 297.036 380.541 194.023 380.541C91.0106 380.541 7.50244 297.033 7.50244 194.021C7.50244 91.0082 91.0106 7.5 194.023 7.5C297.036 7.5 380.544 91.0082 380.544 194.021Z" stroke="white" stroke-width="15"/>
<path d="M380.544 194.021C380.544 297.033 297.036 380.541 194.023 380.541C91.0106 380.541 7.50244 297.033 7.50244 194.021C7.50244 91.0082 91.0106 7.5 194.023 7.5C297.036 7.5 380.544 91.0082 380.544 194.021Z" stroke="white" stroke-width="15"/>
<path d="M380.544 194.021C380.544 297.033 297.036 380.541 194.023 380.541C91.0106 380.541 7.50244 297.033 7.50244 194.021C7.50244 91.0082 91.0106 7.5 194.023 7.5C297.036 7.5 380.544 91.0082 380.544 194.021Z" stroke="white" stroke-width="15"/>
<path d="M380.544 194.021C380.544 297.033 297.036 380.541 194.023 380.541C91.0106 380.541 7.50244 297.033 7.50244 194.021C7.50244 91.0082 91.0106 7.5 194.023 7.5C297.036 7.5 380.544 91.0082 380.544 194.021Z" stroke="white" stroke-width="15"/>
<mask id="mask0_227_763" style="mask-type:alpha" maskUnits="userSpaceOnUse" x="0" y="0" width="389" height="389">
<path d="M380.541 194.022C380.541 91.0097 297.033 7.5015 194.021 7.5015C91.0082 7.5015 7.5 91.0097 7.5 194.022C7.5 297.035 91.0082 380.543 194.021 380.543C297.033 380.543 380.541 297.035 380.541 194.022Z" fill="#F19C9C" stroke="#C1ACDC" stroke-width="15"/>
</mask>
<g mask="url(#mask0_227_763)">
<path d="M380.541 -83.1496C380.541 -186.162 297.033 -269.67 194.021 -269.67C91.0082 -269.67 7.5 -186.162 7.5 -83.1496C7.5 19.8629 91.0082 103.371 194.021 103.371C297.033 103.371 380.541 19.8629 380.541 -83.1496Z" stroke="white" stroke-width="15"/>
<path d="M380.541 479.113C380.541 376.1 297.033 292.592 194.021 292.592C91.0082 292.592 7.5 376.1 7.5 479.113C7.5 582.125 91.0082 665.633 194.021 665.633C297.033 665.633 380.541 582.125 380.541 479.113Z" stroke="white" stroke-width="15"/>
</g>
<line x1="193.618" y1="7.92383" x2="193.618" y2="380.127" stroke="white" stroke-width="15"/>
<line x1="7.91553" y1="201.074" x2="380.118" y2="201.074" stroke="white" stroke-width="15"/>
<path d="M301.342 194.021C301.342 246.49 288.739 293.628 268.755 327.394C248.673 361.327 222.002 380.541 194.013 380.541C166.025 380.541 139.354 361.327 119.271 327.394C99.2871 293.628 86.6846 246.49 86.6846 194.021C86.6846 141.551 99.2871 94.4138 119.271 60.6473C139.354 26.715 166.025 7.5 194.013 7.5C222.002 7.5 248.673 26.715 268.755 60.6473C288.739 94.4138 301.342 141.551 301.342 194.021Z" stroke="white" stroke-width="15"/>
<path d="M301.342 194.021C301.342 246.49 288.739 293.628 268.755 327.394C248.673 361.327 222.002 380.541 194.013 380.541C166.025 380.541 139.354 361.327 119.271 327.394C99.2871 293.628 86.6846 246.49 86.6846 194.021C86.6846 141.551 99.2871 94.4138 119.271 60.6473C139.354 26.715 166.025 7.5 194.013 7.5C222.002 7.5 248.673 26.715 268.755 60.6473C288.739 94.4138 301.342 141.551 301.342 194.021Z" stroke="white" stroke-width="15"/>
<path d="M301.342 194.021C301.342 246.49 288.739 293.628 268.755 327.394C248.673 361.327 222.002 380.541 194.013 380.541C166.025 380.541 139.354 361.327 119.271 327.394C99.2871 293.628 86.6846 246.49 86.6846 194.021C86.6846 141.551 99.2871 94.4138 119.271 60.6473C139.354 26.715 166.025 7.5 194.013 7.5C222.002 7.5 248.673 26.715 268.755 60.6473C288.739 94.4138 301.342 141.551 301.342 194.021Z" stroke="white" stroke-width="15"/>
<path d="M301.342 194.021C301.342 246.49 288.739 293.628 268.755 327.394C248.673 361.327 222.002 380.541 194.013 380.541C166.025 380.541 139.354 361.327 119.271 327.394C99.2871 293.628 86.6846 246.49 86.6846 194.021C86.6846 141.551 99.2871 94.4138 119.271 60.6473C139.354 26.715 166.025 7.5 194.013 7.5C222.002 7.5 248.673 26.715 268.755 60.6473C288.739 94.4138 301.342 141.551 301.342 194.021Z" stroke="white" stroke-width="15"/>
</svg>
