<svg width="50" height="44" viewBox="0 0 50 44" fill="none" xmlns="http://www.w3.org/2000/svg">
<path d="M12.0703 35.2129C13.33 34.2949 14.9609 34.0605 16.4257 34.5879C19.0136 35.5254 21.914 36.0625 25 36.0625C37.1777 36.0625 45.3125 28.2012 45.3125 20.4375C45.3125 12.6738 37.1777 4.8125 25 4.8125C12.8222 4.8125 4.68747 12.6738 4.68747 20.4375C4.68747 23.5625 5.8984 26.5703 8.17379 29.1484C9.01364 30.0957 9.42379 31.3457 9.32614 32.6152C9.18942 34.3828 8.7695 36.0039 8.22262 37.4395C9.88278 36.668 11.2597 35.8086 12.0703 35.2227V35.2129ZM2.07028 39.1777C2.24606 38.9141 2.41208 38.6504 2.56833 38.3867C3.54489 36.7656 4.47262 34.6367 4.65817 32.2441C1.72848 28.9141 -3.36822e-05 24.8418 -3.36822e-05 20.4375C-3.36822e-05 9.2168 11.1914 0.125 25 0.125C38.8086 0.125 50 9.2168 50 20.4375C50 31.6582 38.8086 40.75 25 40.75C21.3769 40.75 17.9394 40.125 14.834 39.002C13.6718 39.8516 11.7773 41.0137 9.53122 41.9902C8.05661 42.6348 6.37692 43.2207 4.63864 43.5625C4.56051 43.582 4.48239 43.5918 4.40426 43.6113C3.97458 43.6895 3.55465 43.7578 3.1152 43.7969C3.09567 43.7969 3.06637 43.8066 3.04684 43.8066C2.54879 43.8555 2.05075 43.8848 1.5527 43.8848C0.917935 43.8848 0.351529 43.5039 0.107388 42.918C-0.136752 42.332 -3.37027e-05 41.668 0.439419 41.2188C0.83981 40.8086 1.20114 40.3691 1.54294 39.9004C1.70895 39.6758 1.8652 39.4512 2.01169 39.2266C2.02145 39.207 2.03122 39.1973 2.04098 39.1777H2.07028Z" fill="white"/>
</svg>
