<svg width="50" height="58" viewBox="0 0 50 58" fill="none" xmlns="http://www.w3.org/2000/svg">
<g clip-path="url(#clip0_21_64)">
<path d="M14.2857 0C15.7701 0 16.9643 1.19346 16.9643 2.67693V7.13848H33.0357V2.67693C33.0357 1.19346 34.2299 0 35.7143 0C37.1987 0 38.3929 1.19346 38.3929 2.67693V7.13848H42.8571C46.7969 7.13848 50 10.3396 50 14.277V16.0616V21.4154V49.9694C50 53.9067 46.7969 57.1078 42.8571 57.1078H7.14286C3.20312 57.1078 0 53.9067 0 49.9694V21.4154V16.0616V14.277C0 10.3396 3.20312 7.13848 7.14286 7.13848H11.6071V2.67693C11.6071 1.19346 12.8013 0 14.2857 0ZM44.6429 21.4154H5.35714V49.9694C5.35714 50.9509 6.16071 51.754 7.14286 51.754H42.8571C43.8393 51.754 44.6429 50.9509 44.6429 49.9694V21.4154ZM36.7188 33.127L24.2188 45.6194C23.1696 46.6678 21.4732 46.6678 20.4353 45.6194L13.2924 38.4809C12.2433 37.4324 12.2433 35.737 13.2924 34.6997C14.3415 33.6624 16.0379 33.6512 17.0759 34.6997L22.3214 39.942L32.9241 29.3458C33.9732 28.2974 35.6696 28.2974 36.7076 29.3458C37.7455 30.3943 37.7567 32.0897 36.7076 33.127H36.7188Z" fill="white"/>
</g>
<defs>
<clipPath id="clip0_21_64">
<rect width="50" height="57.1078" fill="white"/>
</clipPath>
</defs>
</svg>
