<svg width="50" height="50" viewBox="0 0 50 50" fill="none" xmlns="http://www.w3.org/2000/svg">
<path d="M28.125 3.125C28.125 1.39648 26.7285 0 25 0C23.2715 0 21.875 1.39648 21.875 3.125V25C21.875 26.7285 23.2715 28.125 25 28.125C26.7285 28.125 28.125 26.7285 28.125 25V3.125ZM14.0137 11.7773C15.3418 10.6738 15.5176 8.70117 14.4141 7.37305C13.3105 6.04492 11.3379 5.86914 10.0098 6.97266C4.85352 11.2695 1.5625 17.7539 1.5625 25C1.5625 37.9395 12.0605 48.4375 25 48.4375C37.9395 48.4375 48.4375 37.9395 48.4375 25C48.4375 17.7539 45.1367 11.2695 39.9805 6.97266C38.6523 5.86914 36.6797 6.05469 35.5762 7.37305C34.4727 8.69141 34.6582 10.6738 35.9766 11.7773C39.7754 14.9316 42.1777 19.6875 42.1777 25C42.1777 34.4922 34.4824 42.1875 24.9902 42.1875C15.498 42.1875 7.80273 34.4922 7.80273 25C7.80273 19.6875 10.2148 14.9316 14.0039 11.7773H14.0137Z" fill="white"/>
</svg>
