<svg width="700" height="700" viewBox="0 0 700 700" fill="none" xmlns="http://www.w3.org/2000/svg">
<mask id="mask0_245_741" style="mask-type:alpha" maskUnits="userSpaceOnUse" x="0" y="0" width="700" height="700">
<rect width="700" height="700" fill="#D9D9D9"/>
</mask>
<g mask="url(#mask0_245_741)">
<path d="M150.232 666.243C151.022 685.11 166.548 700 185.429 700H514.299C533.18 700 548.706 685.11 549.496 666.243L572.981 170.454H126.747L150.232 666.243ZM424.258 293.599C424.258 285.699 430.664 279.292 438.567 279.292H461.453C469.351 279.292 475.762 285.698 475.762 293.599V576.855C475.762 584.757 469.356 591.162 461.453 591.162H438.567C430.667 591.162 424.258 584.76 424.258 576.855V293.599ZM324.114 293.599C324.114 285.699 330.519 279.292 338.421 279.292H361.307C369.205 279.292 375.614 285.698 375.614 293.599V576.855C375.614 584.757 369.21 591.162 361.307 591.162H338.421C330.521 591.162 324.114 584.76 324.114 576.855V293.599ZM223.966 293.599C223.966 285.699 230.371 279.292 238.273 279.292H261.161C269.061 279.292 275.468 285.698 275.468 293.599V576.855C275.468 584.757 269.062 591.162 261.161 591.162H238.273C230.373 591.162 223.966 584.76 223.966 576.855V293.599Z" fill="black"/>
<path d="M588.619 36.0605H436.9V7.3773C436.9 3.30393 433.598 0 429.523 0H270.202C266.129 0 262.827 3.30393 262.827 7.3773V36.0588H111.106C98.8964 36.0588 89 45.9569 89 58.1667V127.616H610.725V58.1684C610.725 45.9586 600.828 36.0605 588.619 36.0605Z" fill="black"/>
</g>
</svg>
