<svg width="50" height="50" viewBox="0 0 50 50" fill="none" xmlns="http://www.w3.org/2000/svg">
<path d="M6.25 14.0625C7.4932 14.0625 8.68549 13.5686 9.56456 12.6896C10.4436 11.8105 10.9375 10.6182 10.9375 9.375C10.9375 8.1318 10.4436 6.93951 9.56456 6.06044C8.68549 5.18136 7.4932 4.6875 6.25 4.6875C5.0068 4.6875 3.81451 5.18136 2.93544 6.06044C2.05636 6.93951 1.5625 8.1318 1.5625 9.375C1.5625 10.6182 2.05636 11.8105 2.93544 12.6896C3.81451 13.5686 5.0068 14.0625 6.25 14.0625ZM18.75 6.25C17.0215 6.25 15.625 7.64648 15.625 9.375C15.625 11.1035 17.0215 12.5 18.75 12.5H46.875C48.6035 12.5 50 11.1035 50 9.375C50 7.64648 48.6035 6.25 46.875 6.25H18.75ZM18.75 21.875C17.0215 21.875 15.625 23.2715 15.625 25C15.625 26.7285 17.0215 28.125 18.75 28.125H46.875C48.6035 28.125 50 26.7285 50 25C50 23.2715 48.6035 21.875 46.875 21.875H18.75ZM18.75 37.5C17.0215 37.5 15.625 38.8965 15.625 40.625C15.625 42.3535 17.0215 43.75 18.75 43.75H46.875C48.6035 43.75 50 42.3535 50 40.625C50 38.8965 48.6035 37.5 46.875 37.5H18.75ZM6.25 45.3125C7.4932 45.3125 8.68549 44.8186 9.56456 43.9396C10.4436 43.0605 10.9375 41.8682 10.9375 40.625C10.9375 39.3818 10.4436 38.1895 9.56456 37.3104C8.68549 36.4314 7.4932 35.9375 6.25 35.9375C5.0068 35.9375 3.81451 36.4314 2.93544 37.3104C2.05636 38.1895 1.5625 39.3818 1.5625 40.625C1.5625 41.8682 2.05636 43.0605 2.93544 43.9396C3.81451 44.8186 5.0068 45.3125 6.25 45.3125ZM10.9375 25C10.9375 24.3844 10.8163 23.7749 10.5807 23.2062C10.3451 22.6375 9.99984 22.1207 9.56456 21.6854C9.12929 21.2502 8.61254 20.9049 8.04383 20.6693C7.47511 20.4337 6.86557 20.3125 6.25 20.3125C5.63443 20.3125 5.02489 20.4337 4.45617 20.6693C3.88746 20.9049 3.37071 21.2502 2.93544 21.6854C2.50016 22.1207 2.15488 22.6375 1.91931 23.2062C1.68375 23.7749 1.5625 24.3844 1.5625 25C1.5625 25.6156 1.68375 26.2251 1.91931 26.7938C2.15488 27.3625 2.50016 27.8793 2.93544 28.3146C3.37071 28.7498 3.88746 29.0951 4.45617 29.3307C5.02489 29.5663 5.63443 29.6875 6.25 29.6875C6.86557 29.6875 7.47511 29.5663 8.04383 29.3307C8.61254 29.0951 9.12929 28.7498 9.56456 28.3146C9.99984 27.8793 10.3451 27.3625 10.5807 26.7938C10.8163 26.2251 10.9375 25.6156 10.9375 25Z" fill="white"/>
</svg>
