<svg width="177" height="177" viewBox="0 0 177 177" fill="none" xmlns="http://www.w3.org/2000/svg">
<circle cx="88.5" cy="88.5" r="86" stroke="white" stroke-width="5"/>
<path fill-rule="evenodd" clip-rule="evenodd" d="M74.6614 33.6997C74.6614 34.0845 74.167 34.3993 73.5628 34.3993C72.1497 34.3993 70.4659 36.0842 70.4659 37.4982C70.4659 38.1027 70.1512 38.5974 69.7667 38.5974C69.3618 38.5974 69.0674 40.8293 69.0674 43.8946C69.0674 49.1785 68.2766 51.1915 66.2012 51.1915C64.7223 51.1915 56.2419 60.4964 54.0889 64.481C51.3248 69.5984 50.7277 72.4881 50.3955 82.3479C50.1124 90.7649 50.1124 90.7649 48.172 91.6241C45.7309 92.7051 41.797 96.1811 41.797 97.2572C41.797 97.7043 41.4823 98.0695 41.0977 98.0695C40.7131 98.0695 40.3985 98.8566 40.3985 99.8187C40.3985 100.781 40.0838 101.568 39.6992 101.568C39.2552 101.568 39 106.943 39 116.292C39 133.834 39.2454 134.452 46.1924 134.452C49.5865 134.452 50.048 134.639 50.9438 136.377C52.1437 138.704 54.7448 141.449 55.7503 141.449C56.1524 141.449 56.4811 141.764 56.4811 142.149C56.4811 142.605 67.6689 142.848 88.6462 142.848C109.623 142.848 120.811 142.605 120.811 142.149C120.811 141.764 121.14 141.449 121.541 141.449C122.729 141.449 125.571 138.45 126.349 136.377C127.002 134.632 127.395 134.452 130.55 134.452C134.446 134.452 137.593 133.308 137.593 131.891C137.593 131.376 137.908 130.954 138.292 130.954C139.293 130.954 139.207 106.192 138.195 103.017C136.397 97.374 133.795 93.9379 129.722 91.8291C127.916 90.8943 127.804 90.5571 127.804 86.0855C127.804 71.2378 122.252 58.545 113.153 52.5908C112.271 52.0136 111.139 51.1481 110.637 50.6667C110.135 50.186 109.229 49.7921 108.624 49.7921C107.712 49.7921 107.526 48.7832 107.526 43.8218C107.526 33.6927 106.318 33 88.6693 33C79.7966 33 74.6614 33.2568 74.6614 33.6997ZM101.093 39.437C102.589 40.9343 102.174 46.9934 100.575 46.9934C99.8278 46.9934 99.0229 46.6786 98.7852 46.2938C98.5307 45.8817 94.3632 45.5941 88.6462 45.5941C82.9292 45.5941 78.7617 45.8817 78.5072 46.2938C76.4074 49.6928 74.102 43.6567 76.0843 39.9505C76.9682 38.2986 99.4921 37.8354 101.093 39.437ZM100.708 52.942C102.151 53.2177 103.33 53.7243 103.33 54.0664C103.33 54.4093 103.96 54.6898 104.729 54.6898C105.498 54.6898 106.127 55.0047 106.127 55.3895C106.127 55.7743 106.605 56.0892 107.189 56.0892C108.572 56.0892 117.315 64.8379 117.315 66.2211C117.315 66.806 117.63 67.2839 118.014 67.2839C118.399 67.2839 118.714 67.9136 118.714 68.6833C118.714 69.4529 119.028 70.0826 119.413 70.0826C119.797 70.0826 120.112 71.342 120.112 72.8813C120.112 74.4206 120.427 75.68 120.811 75.68C121.257 75.68 121.511 81.4187 121.511 91.4975C121.511 106.288 121.431 107.282 120.287 106.809C108.156 101.794 84.7318 100.31 69.417 103.586C58.9102 105.834 58.5627 105.926 58.1732 106.556C56.8055 108.77 56.4811 105.599 56.4811 90.0233C56.4811 79.0615 56.7335 72.8813 57.1803 72.8813C57.5649 72.8813 57.8795 71.9367 57.8795 70.7823C57.8795 69.6278 58.1942 68.6833 58.5788 68.6833C58.9634 68.6833 59.278 68.1228 59.278 67.4385C59.278 66.7536 59.9073 65.7397 60.6765 65.1849C61.4457 64.6301 62.075 63.7632 62.075 63.258C62.075 61.9825 66.6865 57.4885 67.9955 57.4885C68.5849 57.4885 69.0674 57.2296 69.0674 56.9134C69.0674 56.1535 75.434 53.2933 77.1576 53.28C77.8995 53.2737 78.9792 52.9546 79.556 52.5698C80.6874 51.8156 96.2483 52.0898 100.708 52.942ZM83.7515 62.6031C81.6957 63.5694 78.8568 66.2316 78.8568 67.1937C78.8568 67.5638 78.5191 67.9794 78.1058 68.1172C77.0828 68.4587 77.0562 77.9945 78.0778 78.3352C78.5065 78.4787 78.8568 78.8985 78.8568 79.2686C78.8568 80.2831 81.867 83.0888 84.313 84.3545C89.53 87.0545 95.9701 84.3552 99.6593 77.9224C100.61 76.2656 100.877 68.6833 99.9851 68.6833C99.683 68.6833 98.8768 67.7352 98.1922 66.5759C95.7722 62.4772 88.3588 60.4376 83.7515 62.6031ZM90.7439 67.9836C90.7439 68.3684 91.0809 68.6833 91.4928 68.6833C93.9604 68.6833 95.0408 73.1563 93.4283 76.6966C92.2326 79.3232 86.5072 79.4519 84.2976 76.9023C82.4726 74.797 82.7397 71.8472 84.9752 69.4081C86.8477 67.3658 90.7439 66.403 90.7439 67.9836ZM50.1879 112.763C50.1879 128.155 50.1879 128.155 47.7405 128.155C45.1841 128.155 43.8045 106.467 46.0798 102.046C46.8399 100.57 49.4949 97.3698 49.9599 97.3698C50.0851 97.3698 50.1879 104.297 50.1879 112.763ZM131.824 103.017C134.079 109.462 132.909 128.155 130.251 128.155C127.804 128.155 127.804 128.155 127.804 112.731C127.804 96.4232 128.732 94.1786 131.824 103.017ZM100.184 108.279C102.876 108.499 105.378 108.967 105.743 109.321C106.108 109.674 107.603 109.964 109.064 109.964C110.525 109.964 111.721 110.279 111.721 110.664C111.721 111.048 112.98 111.363 114.518 111.363C116.056 111.363 117.315 111.678 117.315 112.063C117.315 112.448 118.259 112.763 119.413 112.763C121.511 112.763 121.511 112.763 121.511 123.258C121.511 129.788 121.246 133.753 120.811 133.753C120.427 133.753 120.112 134.191 120.112 134.727C120.112 137.038 60.2814 137.677 57.76 135.393C55.1868 133.064 55.921 112.763 58.5788 112.763C59.7325 112.763 60.6765 112.482 60.6765 112.139C60.6765 111.527 63.0141 110.978 68.8926 110.211C70.5274 109.997 71.8644 109.54 71.8644 109.194C71.8644 108.848 74.1453 108.56 76.9339 108.554C79.7225 108.548 82.4754 108.221 83.0523 107.827C84.0445 107.151 87.4092 107.239 100.184 108.279Z" fill="white"/>
</svg>
